REM DIRINDEX 1\6,1\2\7,1\2\8,1\2\9,1\3\10,1\3\11,1\4\12,1\4\13,1\4\14,1\5\15,1\5\16,1\5\17
REM DIRNAME cjc041,folder01,folder02,folder03,folder04,folder05,folder06,folder07,folder08,folder09,folder10,folder11,folder12,folder13,folder14,folder15,folder16
TITLE ""
FILE "3Q_j_1229-1244.mp3" MP3
  TRACK 01 AUDIO
    TITLE "12:cjc041_0987"
    INDEX 01 00:00:00
  TRACK 02 AUDIO
    TITLE "0:"
    INDEX 01 00:01:26
  TRACK 03 AUDIO
    TITLE "13:cjc041_0988"
    INDEX 01 00:02:04
  TRACK 04 AUDIO
    TITLE "0:"
    INDEX 01 00:04:07
  TRACK 05 AUDIO
    TITLE "14:cjc041_0989"
    INDEX 01 00:04:60
  TRACK 06 AUDIO
    TITLE "0:"
    INDEX 01 00:09:00
  TRACK 07 AUDIO
    TITLE "12:cjc041_0990"
    INDEX 01 00:09:51
  TRACK 08 AUDIO
    TITLE "0:"
    INDEX 01 00:11:01
  TRACK 09 AUDIO
    TITLE "13:cjc041_0991"
    INDEX 01 00:11:56
  TRACK 10 AUDIO
    TITLE "0:"
    INDEX 01 00:15:40
  TRACK 11 AUDIO
    TITLE "14:cjc041_0992"
    INDEX 01 00:16:16
  TRACK 12 AUDIO
    TITLE "0:"
    INDEX 01 00:18:58
  TRACK 13 AUDIO
    TITLE "12:cjc041_0993"
    INDEX 01 00:19:32
  TRACK 14 AUDIO
    TITLE "0:"
    INDEX 01 00:21:04
  TRACK 15 AUDIO
    TITLE "13:cjc041_0994"
    INDEX 01 00:21:55
  TRACK 16 AUDIO
    TITLE "0:"
    INDEX 01 00:23:67
  TRACK 17 AUDIO
    TITLE "14:cjc041_0995"
    INDEX 01 00:24:47
  TRACK 18 AUDIO
    TITLE "0:"
    INDEX 01 00:28:57
  TRACK 19 AUDIO
    TITLE "12:cjc041_0996"
    INDEX 01 00:29:36
  TRACK 20 AUDIO
    TITLE "0:"
    INDEX 01 00:30:48
  TRACK 21 AUDIO
    TITLE "13:cjc041_0997"
    INDEX 01 00:31:39
  TRACK 22 AUDIO
    TITLE "0:"
    INDEX 01 00:34:28
  TRACK 23 AUDIO
    TITLE "14:cjc041_0998"
    INDEX 01 00:35:04
  TRACK 24 AUDIO
    TITLE "0:"
    INDEX 01 00:37:57
  TRACK 25 AUDIO
    TITLE "12:cjc041_0999"
    INDEX 01 00:38:37
  TRACK 26 AUDIO
    TITLE "0:"
    INDEX 01 00:40:34
  TRACK 27 AUDIO
    TITLE "13:cjc041_1000"
    INDEX 01 00:41:18
  TRACK 28 AUDIO
    TITLE "0:"
    INDEX 01 00:42:55
  TRACK 29 AUDIO
    TITLE "14:cjc041_1001"
    INDEX 01 00:43:37
  TRACK 30 AUDIO
    TITLE "0:"
    INDEX 01 00:48:34
  TRACK 31 AUDIO
    TITLE "12:cjc041_1002"
    INDEX 01 00:49:12
  TRACK 32 AUDIO
    TITLE "0:"
    INDEX 01 00:51:34
  TRACK 33 AUDIO
    TITLE "13:cjc041_1003"
    INDEX 01 00:52:12
  TRACK 34 AUDIO
    TITLE "0:"
    INDEX 01 00:54:07
  TRACK 35 AUDIO
    TITLE "14:cjc041_1004"
    INDEX 01 00:54:62
  TRACK 36 AUDIO
    TITLE "0:"
    INDEX 01 00:57:25
  TRACK 37 AUDIO
    TITLE "12:cjc041_1005"
    INDEX 01 00:58:07
  TRACK 38 AUDIO
    TITLE "0:"
    INDEX 01 01:00:43
  TRACK 39 AUDIO
    TITLE "13:cjc041_1006"
    INDEX 01 01:01:27
  TRACK 40 AUDIO
    TITLE "0:"
    INDEX 01 01:03:18
  TRACK 41 AUDIO
    TITLE "14:cjc041_1007"
    INDEX 01 01:04:00
  TRACK 42 AUDIO
    TITLE "0:"
    INDEX 01 01:08:13
  TRACK 43 AUDIO
    TITLE "12:cjc041_1008"
    INDEX 01 01:08:72
  TRACK 44 AUDIO
    TITLE "0:"
    INDEX 01 01:11:15
  TRACK 45 AUDIO
    TITLE "13:cjc041_1009"
    INDEX 01 01:11:70
  TRACK 46 AUDIO
    TITLE "0:"
    INDEX 01 01:13:67
  TRACK 47 AUDIO
    TITLE "14:cjc041_1010"
    INDEX 01 01:14:43
  TRACK 48 AUDIO
    TITLE "0:"
    INDEX 01 01:17:69
  TRACK 49 AUDIO
    TITLE "12:cjc041_1011"
    INDEX 01 01:18:51
  TRACK 50 AUDIO
    TITLE "0:"
    INDEX 01 01:20:22
  TRACK 51 AUDIO
    TITLE "13:cjc041_1012"
    INDEX 01 01:21:02
  TRACK 52 AUDIO
    TITLE "0:"
    INDEX 01 01:22:21
  TRACK 53 AUDIO
    TITLE "14:cjc041_1013"
    INDEX 01 01:22:74
  TRACK 54 AUDIO
    TITLE "0:"
    INDEX 01 01:27:03
  TRACK 55 AUDIO
    TITLE "12:cjc041_1014"
    INDEX 01 01:27:55
  TRACK 56 AUDIO
    TITLE "0:"
    INDEX 01 01:29:31
  TRACK 57 AUDIO
    TITLE "13:cjc041_1015"
    INDEX 01 01:30:09
  TRACK 58 AUDIO
    TITLE "0:"
    INDEX 01 01:32:31
  TRACK 59 AUDIO
    TITLE "14:cjc041_1016"
    INDEX 01 01:33:03
  TRACK 60 AUDIO
    TITLE "0:"
    INDEX 01 01:36:52
  TRACK 61 AUDIO
    TITLE "12:cjc041_1017"
    INDEX 01 01:37:28
  TRACK 62 AUDIO
    TITLE "0:"
    INDEX 01 01:38:61
  TRACK 63 AUDIO
    TITLE "13:cjc041_1018"
    INDEX 01 01:39:45
  TRACK 64 AUDIO
    TITLE "0:"
    INDEX 01 01:41:73
  TRACK 65 AUDIO
    TITLE "14:cjc041_1019"
    INDEX 01 01:42:57
  TRACK 66 AUDIO
    TITLE "0:"
    INDEX 01 01:46:25
  TRACK 67 AUDIO
    TITLE "12:cjc041_1020"
    INDEX 01 01:47:01
  TRACK 68 AUDIO
    TITLE "0:"
    INDEX 01 01:49:43
  TRACK 69 AUDIO
    TITLE "13:cjc041_1021"
    INDEX 01 01:50:25
  TRACK 70 AUDIO
    TITLE "0:"
    INDEX 01 01:53:21
  TRACK 71 AUDIO
    TITLE "14:cjc041_1022"
    INDEX 01 01:53:74
  TRACK 72 AUDIO
    TITLE "0:"
    INDEX 01 01:57:37
  TRACK 73 AUDIO
    TITLE "12:cjc041_1023"
    INDEX 01 01:58:15
  TRACK 74 AUDIO
    TITLE "0:"
    INDEX 01 02:00:49
  TRACK 75 AUDIO
    TITLE "13:cjc041_1024"
    INDEX 01 02:01:31
  TRACK 76 AUDIO
    TITLE "0:"
    INDEX 01 02:03:67
  TRACK 77 AUDIO
    TITLE "14:cjc041_1025"
    INDEX 01 02:04:49
  TRACK 78 AUDIO
    TITLE "0:"
    INDEX 01 02:08:50
  TRACK 79 AUDIO
    TITLE "12:cjc041_1026"
    INDEX 01 02:09:28
  TRACK 80 AUDIO
    TITLE "0:"
    INDEX 01 02:10:67
  TRACK 81 AUDIO
    TITLE "13:cjc041_1027"
    INDEX 01 02:11:47
  TRACK 82 AUDIO
    TITLE "0:"
    INDEX 01 02:12:58
  TRACK 83 AUDIO
    TITLE "14:cjc041_1028"
    INDEX 01 02:13:38
  TRACK 84 AUDIO
    TITLE "0:"
    INDEX 01 02:16:64
  TRACK 85 AUDIO
    TITLE "12:cjc041_1029"
    INDEX 01 02:17:47
  TRACK 86 AUDIO
    TITLE "0:"
    INDEX 01 02:19:13
  TRACK 87 AUDIO
    TITLE "13:cjc041_1030"
    INDEX 01 02:19:68
  TRACK 88 AUDIO
    TITLE "0:"
    INDEX 01 02:21:16
  TRACK 89 AUDIO
    TITLE "14:cjc041_1031"
    INDEX 01 02:21:61
  TRACK 90 AUDIO
    TITLE "0:"
    INDEX 01 02:24:69
  TRACK 91 AUDIO
    TITLE "12:cjc041_1032"
    INDEX 01 02:25:53
  TRACK 92 AUDIO
    TITLE "0:"
    INDEX 01 02:27:13
  TRACK 93 AUDIO
    TITLE "13:cjc041_1033"
    INDEX 01 02:27:63
  TRACK 94 AUDIO
    TITLE "0:"
    INDEX 01 02:29:58
  TRACK 95 AUDIO
    TITLE "14:cjc041_1034"
    INDEX 01 02:30:38
  TRACK 96 AUDIO
    TITLE "0:"
    INDEX 01 02:34:52
